<svg width="183" height="103" viewBox="0 0 183 103" fill="none" xmlns="http://www.w3.org/2000/svg">
<path d="M45.5318 2.85523C39.0446 2.3413 32.4471 4.1941 26.4353 8.21816C20.4236 12.2422 15.2204 18.2883 11.3749 25.7186C7.52935 33.149 5.18394 41.688 4.5861 50.435C3.98826 59.1819 5.16017 67.8124 7.97817 75.416C10.7962 83.0196 15.1558 89.3144 20.5971 93.6363C26.0384 97.9581 32.3597 100.147 38.8941 99.9716C45.4284 99.7963 51.9336 97.2634 57.7233 92.6402C63.513 88.017 68.3726 81.4749 71.7894 73.704C68.8732 80.3363 66.3485 81.9881 61.4071 85.9338C56.2967 90.8454 44.5855 93.6338 39.1714 92.8511C33.5945 93.0007 28.1994 91.1327 23.5554 87.4441C18.9114 83.7555 15.1906 78.383 12.7855 71.8936C10.3804 65.4041 9.3802 58.0382 9.89043 50.5729C10.4007 43.1076 13.7466 31.0613 17.0286 24.7197C20.3107 18.3781 26.7867 12.0869 31.9176 8.65246C37.0484 5.21804 39.9951 2.41661 45.5318 2.85523Z" fill="#289A00"/>
<path d="M27.9573 11.5018C38.9826 20.2119 42.7545 27.7396 43.3527 44.6346C56.425 44.682 61.8078 46.1643 69.0117 50.6588H56.8616C54.7062 50.6588 52.552 50.9027 50.472 51.4681C43.8601 53.2657 39.928 55.2717 38.5431 62.7241C38.2683 64.2031 38.2218 65.7297 38.4518 67.2163C39.9858 77.1303 48.0514 79.5755 67.3011 80.7795C58.5664 83.4528 51.3114 82.5741 43.3796 81.476C39.9789 81.0052 36.6772 79.9 33.7347 78.1314C28.5774 75.0316 26.2912 73.1387 24.7429 68.0123C23.8463 65.0434 23.7587 61.8848 24.1621 58.8099C25.152 51.2648 26.9939 46.2014 30.4272 39.6733C31.587 37.4681 32.3889 35.0675 32.4541 32.5768C32.6379 25.5607 31.3465 20.2817 27.9573 11.5018Z" fill="#FFFCFC" stroke="white" stroke-width="0.676581"/>
<path d="M59.0517 75.8464L57.0761 70.0007H51.7175L49.6337 75.8464H51.6634V76.3606H47.5227V75.8464H48.7947L55.6958 57.2539H57.915L64.735 75.8464H65.9799V76.3606H57.1302V75.8464H59.0517ZM54.505 62.3148L51.9611 69.4053H56.8595L54.505 62.3148ZM75.0281 66.7802H73.5937V75.8464H75.3528V76.3606H66.5573V75.8464H68.3164V57.9305H66.5573V57.4163H74.7304C77.0759 57.4163 78.7357 57.5426 79.71 57.7952C80.7023 58.0298 81.397 58.3184 81.7939 58.6612C82.6599 59.3649 83.0929 60.4835 83.0929 62.0171C83.0929 63.5507 82.714 64.6512 81.9563 65.3188C81.1985 65.9683 80.0438 66.3562 78.4922 66.4825V66.5637C79.9536 66.7622 80.973 67.1952 81.5503 67.8627C82.1277 68.5303 82.4163 69.6489 82.4163 71.2186V72.6529C82.4163 73.5911 82.4614 74.2226 82.5517 74.5474C82.6599 74.8721 82.8764 75.0345 83.2012 75.0345C83.5259 75.0345 83.7785 74.8902 83.9589 74.6015C84.1574 74.2948 84.3378 73.6633 84.5002 72.7071L84.9603 72.7612C84.7618 74.2948 84.41 75.3232 83.9048 75.8464C83.4177 76.3696 82.4344 76.6312 80.9549 76.6312C79.4755 76.6312 78.42 76.2884 77.7885 75.6028C77.1751 74.8992 76.8684 73.5911 76.8684 71.6787V69.703C76.8684 68.6927 76.7331 67.9529 76.4624 67.4839C76.2098 67.0148 75.7317 66.7802 75.0281 66.7802ZM73.5937 57.9305V66.266H74.4597C75.4881 66.266 76.2459 65.9503 76.7331 65.3188C77.2382 64.6873 77.4908 63.6589 77.4908 62.2336V61.4488C77.4908 60.0234 77.2473 59.0852 76.7601 58.6342C76.291 58.1651 75.5333 57.9305 74.4868 57.9305H73.5937ZM86.0921 57.4163H100.165L100.436 62.7748H99.9485C99.1907 60.9526 98.3968 59.7077 97.5669 59.0401C96.7369 58.3545 95.5191 58.0117 93.9134 58.0117H92.9661V66.3743H93.8863C94.7343 66.3743 95.4469 66.0585 96.0243 65.427C96.6016 64.7775 97.0076 63.9115 97.2421 62.829H97.6481V70.8397H97.188C96.8632 69.4865 96.4212 68.5213 95.8619 67.9439C95.3206 67.3666 94.5719 67.0779 93.6157 67.0779H92.9661V75.7652H93.9945C95.6544 75.7652 97.0617 75.269 98.2164 74.2767C99.3891 73.2844 100.192 72.0124 100.625 70.4608H101.166L100.95 76.3606H86.0921V75.7652H87.6888V58.0117H86.0921V57.4163ZM117.242 57.4163H124.468V57.9305H122.98V75.8464H124.468V76.3606H116.214V75.8464H117.703V58.9319H117.594L113.535 76.3606H110.152L105.389 58.8507H105.281V75.8464H106.769V76.3606H103.088V75.8464H104.577V57.9305H103.088V57.4163H110.395L113.995 71.3539L117.242 57.4163ZM138.699 67.9981V65.9954C138.699 62.6937 138.537 60.6098 138.212 59.7438C137.851 58.7514 137.337 58.138 136.67 57.9035C136.291 57.7591 135.831 57.687 135.289 57.687C134.748 57.687 134.279 57.7591 133.882 57.9035C133.503 58.0478 133.188 58.3004 132.935 58.6612C132.682 59.0221 132.475 59.401 132.312 59.7979C132.168 60.1948 132.051 60.7541 131.961 61.4758C131.852 62.5223 131.798 64.0649 131.798 66.1036V68.0522C131.798 70.2533 131.879 71.823 132.042 72.7612C132.222 73.6813 132.439 74.3399 132.691 74.7368C133.251 75.6209 134.117 76.0629 135.289 76.0629C136.715 76.0629 137.635 75.4675 138.05 74.2767C138.483 73.0679 138.699 70.975 138.699 67.9981ZM135.235 76.6312C132.222 76.6312 129.967 75.8193 128.47 74.1955C126.99 72.5537 126.25 70.1902 126.25 67.105C126.25 64.0017 127.044 61.566 128.632 59.7979C130.238 58.0117 132.502 57.1186 135.425 57.1186C138.348 57.1186 140.549 57.9666 142.028 59.6626C143.526 61.3405 144.274 63.7311 144.274 66.8343C144.274 69.9376 143.517 72.3462 142.001 74.0602C140.504 75.7742 138.248 76.6312 135.235 76.6312ZM154.262 66.7802H152.828V75.8464H154.587V76.3606H145.791V75.8464H147.55V57.9305H145.791V57.4163H153.964C156.31 57.4163 157.97 57.5426 158.944 57.7952C159.936 58.0298 160.631 58.3184 161.028 58.6612C161.894 59.3649 162.327 60.4835 162.327 62.0171C162.327 63.5507 161.948 64.6512 161.19 65.3188C160.432 65.9683 159.278 66.3562 157.726 66.4825V66.5637C159.188 66.7622 160.207 67.1952 160.784 67.8627C161.362 68.5303 161.65 69.6489 161.65 71.2186V72.6529C161.65 73.5911 161.695 74.2226 161.786 74.5474C161.894 74.8721 162.11 75.0345 162.435 75.0345C162.76 75.0345 163.012 74.8902 163.193 74.6015C163.391 74.2948 163.572 73.6633 163.734 72.7071L164.194 72.7612C163.996 74.2948 163.644 75.3232 163.139 75.8464C162.652 76.3696 161.668 76.6312 160.189 76.6312C158.709 76.6312 157.654 76.2884 157.022 75.6028C156.409 74.8992 156.102 73.5911 156.102 71.6787V69.703C156.102 68.6927 155.967 67.9529 155.696 67.4839C155.444 67.0148 154.966 66.7802 154.262 66.7802ZM152.828 57.9305V66.266H153.694C154.722 66.266 155.48 65.9503 155.967 65.3188C156.472 64.6873 156.725 63.6589 156.725 62.2336V61.4488C156.725 60.0234 156.481 59.0852 155.994 58.6342C155.525 58.1651 154.767 57.9305 153.721 57.9305H152.828ZM165.326 57.4163H179.399L179.67 62.7748H179.182C178.425 60.9526 177.631 59.7077 176.801 59.0401C175.971 58.3545 174.753 58.0117 173.147 58.0117H172.2V66.3743H173.12C173.968 66.3743 174.681 66.0585 175.258 65.427C175.836 64.7775 176.242 63.9115 176.476 62.829H176.882V70.8397H176.422C176.097 69.4865 175.655 68.5213 175.096 67.9439C174.555 67.3666 173.806 67.0779 172.85 67.0779H172.2V75.7652H173.229C174.888 75.7652 176.296 75.269 177.45 74.2767C178.623 73.2844 179.426 72.0124 179.859 70.4608H180.4L180.184 76.3606H165.326V75.7652H166.923V58.0117H165.326V57.4163Z" fill="url(#paint0_linear_271_335)"/>
<defs>
<linearGradient id="paint0_linear_271_335" x1="114.86" y1="47.3606" x2="114.86" y2="84.3606" gradientUnits="userSpaceOnUse">
<stop stop-color="#289A00"/>
<stop offset="1" stop-color="white"/>
</linearGradient>
</defs>
</svg>
